<svg xmlns="http://www.w3.org/2000/svg" xmlns:xlink="http://www.w3.org/1999/xlink" version="1.1" x="0px" y="0px" viewBox="0 0 100 125" enable-background="new 0 0 100 100" xml:space="preserve"><path d="M82.36,58.71c0-11.01-5.969-19.987-13.401-20.369v-4.069c0-7.331-11.271-13.074-25.659-13.074  c-14.389,0-25.66,5.743-25.66,13.074v47.654C17.64,89.257,28.911,95,43.3,95c14.388,0,25.659-5.743,25.659-13.074v-2.847  C76.391,78.696,82.36,69.719,82.36,58.71z M68.959,46.203c4.294,0.39,7.712,5.842,7.712,12.507s-3.418,12.117-7.712,12.507V46.203z   M43.3,22.908c12.981,0,23.949,5.204,23.949,11.364c0,6.468-10.743,11.73-23.949,11.73s-23.949-5.262-23.949-11.73  C19.351,28.112,30.318,22.908,43.3,22.908z M43.3,93.289c-12.982,0-23.949-5.204-23.949-11.364V37.787  C22.35,43.089,31.948,46.98,43.3,46.98c11.352,0,20.95-3.89,23.949-9.193v44.139C67.249,88.086,56.281,93.289,43.3,93.289z   M68.959,77.367v-5.171c4.834-0.378,8.69-6.272,8.69-13.485s-3.856-13.108-8.69-13.486v-5.171c6.488,0.398,11.69,8.602,11.69,18.657  C80.649,68.765,75.448,76.969,68.959,77.367z"/><path d="M43.3,44.536c12.333,0,21.994-4.509,21.994-10.264S55.633,24.008,43.3,24.008s-21.994,4.509-21.994,10.264  S30.967,44.536,43.3,44.536z"/><path d="M34.851,14.044c0.202,0.353,0.33,0.76,0.33,1.324c-0.001,0.778-0.147,1.456-0.328,2.001  c-0.293,0.881-0.676,1.41-0.681,1.416c-0.285,0.376-0.212,0.913,0.165,1.199c0.155,0.117,0.336,0.174,0.516,0.174  c0.258,0,0.514-0.116,0.682-0.338c0.055-0.073,1.355-1.816,1.356-4.449c0.001-1.751-0.831-2.665-1.5-3.399  c-0.229-0.251-0.401-0.458-0.542-0.661c-0.213-0.308-0.335-0.606-0.335-1.021c0-0.753,0.151-1.389,0.333-1.893  c0.281-0.773,0.639-1.225,0.654-1.243c0.303-0.36,0.259-0.897-0.099-1.202c-0.36-0.306-0.9-0.263-1.206,0.096  c-0.057,0.067-1.392,1.663-1.392,4.242c0,1.382,0.733,2.187,1.322,2.834C34.411,13.434,34.663,13.716,34.851,14.044z"/><path d="M43.303,13.298c0.202,0.353,0.33,0.76,0.33,1.324c-0.001,0.778-0.147,1.457-0.328,2.002  c-0.293,0.881-0.676,1.408-0.68,1.415c-0.286,0.376-0.212,0.913,0.164,1.198c0.155,0.117,0.336,0.174,0.516,0.174  c0.258,0,0.514-0.116,0.682-0.338c0.055-0.073,1.356-1.816,1.357-4.449c0.001-1.751-0.831-2.665-1.5-3.399  c-0.229-0.251-0.401-0.458-0.541-0.661c-0.213-0.308-0.335-0.606-0.335-1.02c0-0.753,0.151-1.39,0.334-1.894  c0.282-0.777,0.643-1.229,0.654-1.243c0.303-0.359,0.259-0.896-0.099-1.201c-0.359-0.307-0.9-0.264-1.206,0.095  c-0.057,0.066-1.393,1.662-1.393,4.242c0,1.382,0.733,2.187,1.322,2.833C42.863,12.687,43.115,12.97,43.303,13.298z"/><path d="M51.77,14.044c0.202,0.353,0.33,0.76,0.33,1.324c-0.001,0.778-0.148,1.456-0.329,2.001  c-0.293,0.881-0.677,1.409-0.681,1.416c-0.285,0.376-0.212,0.913,0.164,1.198c0.155,0.117,0.337,0.174,0.516,0.174  c0.259,0,0.514-0.116,0.683-0.338c0.055-0.073,1.356-1.816,1.357-4.449c0.001-1.751-0.831-2.665-1.501-3.399  c-0.229-0.251-0.401-0.458-0.541-0.661c-0.213-0.308-0.335-0.606-0.335-1.021c0-0.753,0.151-1.39,0.334-1.894  c0.281-0.772,0.638-1.224,0.653-1.242c0.304-0.36,0.26-0.897-0.099-1.202c-0.357-0.305-0.899-0.263-1.206,0.096  c-0.056,0.067-1.392,1.663-1.392,4.242c0,1.382,0.733,2.187,1.323,2.834C51.33,13.434,51.582,13.716,51.77,14.044z"/><text x="0" y="115" fill="#000000" font-size="5px" font-weight="bold" font-family="'Helvetica Neue', Helvetica, Arial-Unicode, Arial, Sans-serif"></text><text x="0" y="120" fill="#000000" font-size="5px" font-weight="bold" font-family="'Helvetica Neue', Helvetica, Arial-Unicode, Arial, Sans-serif"></text></svg>